<svg width="128" height="128" viewBox="0 0 128 128" fill="none" xmlns="http://www.w3.org/2000/svg">
<rect x="5" y="28" width="118" height="73" rx="16" fill="black"/>
<path d="M28 88V64H16V58H28V52H34V46H52V52H40V58H52V64H40V88H28ZM64 88V82H58V70H64V64H58V52H64V46H88V52H94V64H88V70H100V82H94V88H64ZM76 64H88V52H70V58H76V64ZM64 82H88V76H76V70H64V82Z" fill="#3c0008"/>
<path d="M34 82V58H22V52H34V46H40V40H58V46H46V52H58V58H46V82H34ZM70 82V76H64V64H70V58H64V46H70V40H94V46H100V58H94V64H106V76H100V82H70ZM82 58H94V46H76V52H82V58ZM70 76H94V70H82V64H70V76Z" fill="#ff0000"/>
</svg>
